<mxfile host="app.diagrams.net" modified="2022-04-08T07:05:57.796Z" agent="5.0 (Windows)" etag="i0kOCTZY14M7-ErUxb4i" version="17.4.1" type="github">
  <diagram id="wjaxYszw41zFd_kDudd0" name="Page-1">
    <mxGraphModel dx="1844" dy="1504" grid="1" gridSize="10" guides="0" tooltips="1" connect="1" arrows="1" fold="1" page="1" pageScale="1" pageWidth="850" pageHeight="1100" background="#F4F1DE" math="0" shadow="0">
      <root>
        <mxCell id="0" />
        <mxCell id="1" parent="0" />
        <mxCell id="qmoSsivqGrwg9p8YMAHi-2" value="&lt;div align=&quot;left&quot;&gt;Network&lt;/div&gt;" style="rounded=0;whiteSpace=wrap;html=1;fontStyle=1;align=left;labelBackgroundColor=#F4F1DE;fillColor=#F2CC8F;strokeColor=#E07A5F;fontColor=#393C56;" parent="1" vertex="1">
          <mxGeometry x="220" y="530" width="170" height="100" as="geometry" />
        </mxCell>
        <mxCell id="qmoSsivqGrwg9p8YMAHi-4" value="Cloud" style="ellipse;shape=cloud;whiteSpace=wrap;html=1;labelBackgroundColor=#F4F1DE;fillColor=#F2CC8F;strokeColor=#E07A5F;fontColor=#393C56;" parent="1" vertex="1">
          <mxGeometry x="330" y="550" width="50" height="30" as="geometry" />
        </mxCell>
        <mxCell id="qmoSsivqGrwg9p8YMAHi-6" value="Server" style="shape=cylinder3;whiteSpace=wrap;html=1;boundedLbl=1;backgroundOutline=1;size=15;lid=0;labelBackgroundColor=#F4F1DE;fillColor=#F2CC8F;strokeColor=#E07A5F;fontColor=#393C56;" parent="1" vertex="1">
          <mxGeometry x="275" y="550" width="60" height="80" as="geometry" />
        </mxCell>
        <mxCell id="qmoSsivqGrwg9p8YMAHi-7" value="&lt;div align=&quot;left&quot;&gt;&lt;b&gt;ROOM DB&lt;br&gt;&lt;/b&gt;&lt;/div&gt;" style="shape=datastore;whiteSpace=wrap;html=1;fontFamily=Helvetica;fontSize=12;fontColor=#393C56;align=left;strokeColor=#E07A5F;fillColor=#F2CC8F;labelBackgroundColor=#F4F1DE;" parent="1" vertex="1">
          <mxGeometry x="500" y="530" width="160" height="100" as="geometry" />
        </mxCell>
        <mxCell id="qmoSsivqGrwg9p8YMAHi-8" value="" style="rounded=0;whiteSpace=wrap;html=1;fillColor=#F2CC8F;strokeColor=#E07A5F;fontColor=#393C56;" parent="1" vertex="1">
          <mxGeometry x="350" y="700" width="280" height="120" as="geometry" />
        </mxCell>
        <mxCell id="qmoSsivqGrwg9p8YMAHi-9" value="&lt;b&gt;DB&lt;/b&gt;" style="shape=cylinder3;whiteSpace=wrap;html=1;boundedLbl=1;backgroundOutline=1;size=15;fillColor=#F2CC8F;strokeColor=#E07A5F;fontColor=#393C56;" parent="1" vertex="1">
          <mxGeometry x="555" y="710" width="60" height="80" as="geometry" />
        </mxCell>
        <mxCell id="qmoSsivqGrwg9p8YMAHi-24" value="Data Source" style="text;html=1;align=center;verticalAlign=middle;resizable=0;points=[];autosize=1;strokeColor=none;fillColor=none;fontStyle=1;fontSize=17;fontColor=#393C56;" parent="1" vertex="1">
          <mxGeometry x="185" y="505" width="110" height="30" as="geometry" />
        </mxCell>
        <mxCell id="qmoSsivqGrwg9p8YMAHi-25" value="Data Store" style="text;html=1;align=center;verticalAlign=middle;resizable=0;points=[];autosize=1;strokeColor=none;fillColor=none;fontStyle=1;fontSize=17;fontColor=#393C56;" parent="1" vertex="1">
          <mxGeometry x="505" y="500" width="100" height="30" as="geometry" />
        </mxCell>
        <mxCell id="qmoSsivqGrwg9p8YMAHi-26" style="edgeStyle=orthogonalEdgeStyle;rounded=0;orthogonalLoop=1;jettySize=auto;html=1;exitX=0.31;exitY=0.8;exitDx=0;exitDy=0;exitPerimeter=0;entryX=0.875;entryY=0.5;entryDx=0;entryDy=0;entryPerimeter=0;fontSize=17;labelBackgroundColor=#F4F1DE;strokeColor=#E07A5F;fontColor=#393C56;" parent="1" source="qmoSsivqGrwg9p8YMAHi-4" target="qmoSsivqGrwg9p8YMAHi-4" edge="1">
          <mxGeometry relative="1" as="geometry">
            <Array as="points">
              <mxPoint x="346" y="590" />
              <mxPoint x="374" y="590" />
            </Array>
          </mxGeometry>
        </mxCell>
        <mxCell id="qmoSsivqGrwg9p8YMAHi-28" value="" style="endArrow=classic;html=1;rounded=0;fontSize=13;exitX=0.818;exitY=1.04;exitDx=0;exitDy=0;exitPerimeter=0;fontStyle=0;labelBackgroundColor=#F4F1DE;strokeColor=#E07A5F;fontColor=#393C56;" parent="1" source="qmoSsivqGrwg9p8YMAHi-2" edge="1">
          <mxGeometry width="50" height="50" relative="1" as="geometry">
            <mxPoint x="440" y="700" as="sourcePoint" />
            <mxPoint x="359" y="700" as="targetPoint" />
          </mxGeometry>
        </mxCell>
        <mxCell id="qmoSsivqGrwg9p8YMAHi-29" value="Mapper" style="text;html=1;align=center;verticalAlign=middle;resizable=0;points=[];autosize=1;strokeColor=none;fillColor=none;fontSize=16;fontStyle=1;fontColor=#393C56;" parent="1" vertex="1">
          <mxGeometry x="395" y="680" width="70" height="20" as="geometry" />
        </mxCell>
        <mxCell id="qmoSsivqGrwg9p8YMAHi-30" value="&lt;b&gt;Server&lt;/b&gt;" style="shape=cylinder3;whiteSpace=wrap;html=1;boundedLbl=1;backgroundOutline=1;size=15;lid=0;fillColor=#F2CC8F;strokeColor=#E07A5F;fontColor=#393C56;" parent="1" vertex="1">
          <mxGeometry x="365" y="720" width="60" height="80" as="geometry" />
        </mxCell>
        <mxCell id="qmoSsivqGrwg9p8YMAHi-31" value="" style="endArrow=classic;html=1;rounded=0;fontSize=16;labelBackgroundColor=#F4F1DE;strokeColor=#E07A5F;fontColor=#393C56;" parent="1" edge="1">
          <mxGeometry relative="1" as="geometry">
            <mxPoint x="430" y="750" as="sourcePoint" />
            <mxPoint x="530" y="750" as="targetPoint" />
          </mxGeometry>
        </mxCell>
        <mxCell id="qmoSsivqGrwg9p8YMAHi-34" value="Entity" style="edgeLabel;html=1;align=center;verticalAlign=middle;resizable=0;points=[];fontSize=16;fontStyle=1;labelBackgroundColor=#F4F1DE;fontColor=#393C56;" parent="qmoSsivqGrwg9p8YMAHi-31" vertex="1" connectable="0">
          <mxGeometry x="-0.36" y="-5" relative="1" as="geometry">
            <mxPoint x="8" y="5" as="offset" />
          </mxGeometry>
        </mxCell>
        <mxCell id="qmoSsivqGrwg9p8YMAHi-33" value="" style="endArrow=classic;html=1;rounded=0;fontSize=13;exitX=0.789;exitY=-0.025;exitDx=0;exitDy=0;exitPerimeter=0;fontStyle=0;entryX=0.447;entryY=1.02;entryDx=0;entryDy=0;entryPerimeter=0;labelBackgroundColor=#F4F1DE;strokeColor=#E07A5F;fontColor=#393C56;" parent="1" source="qmoSsivqGrwg9p8YMAHi-8" target="qmoSsivqGrwg9p8YMAHi-7" edge="1">
          <mxGeometry width="50" height="50" relative="1" as="geometry">
            <mxPoint x="369.05999999999995" y="644" as="sourcePoint" />
            <mxPoint x="369" y="710" as="targetPoint" />
          </mxGeometry>
        </mxCell>
        <mxCell id="qmoSsivqGrwg9p8YMAHi-35" value="" style="verticalLabelPosition=bottom;verticalAlign=top;html=1;shape=mxgraph.basic.patternFillRect;fillStyle=diagRev;step=5;fillStrokeWidth=0.2;fillStrokeColor=#dddddd;fontSize=16;strokeColor=#E07A5F;fontColor=#393C56;labelBackgroundColor=#F4F1DE;noLabel=1;labelBorderColor=#000000;fillColor=#F2CC8F;" parent="1" vertex="1">
          <mxGeometry x="190" y="380" width="530" height="60" as="geometry" />
        </mxCell>
        <mxCell id="qmoSsivqGrwg9p8YMAHi-37" value="" style="endArrow=classic;html=1;rounded=0;fontSize=17;fontStyle=0;labelBackgroundColor=#F4F1DE;strokeColor=#E07A5F;fontColor=#393C56;" parent="1" edge="1">
          <mxGeometry width="50" height="50" relative="1" as="geometry">
            <mxPoint x="369" y="440" as="sourcePoint" />
            <mxPoint x="369" y="530" as="targetPoint" />
          </mxGeometry>
        </mxCell>
        <mxCell id="qmoSsivqGrwg9p8YMAHi-44" value="Repository" style="text;html=1;align=center;verticalAlign=middle;resizable=0;points=[];autosize=1;strokeColor=none;fillColor=none;fontStyle=1;fontSize=17;fontColor=#393C56;" parent="1" vertex="1">
          <mxGeometry x="440" y="380" width="100" height="30" as="geometry" />
        </mxCell>
        <mxCell id="QVQ9O9PQBRYbGwQxGyxz-4" style="edgeStyle=orthogonalEdgeStyle;rounded=0;orthogonalLoop=1;jettySize=auto;html=1;fontSize=21;" edge="1" parent="1" source="qmoSsivqGrwg9p8YMAHi-47" target="QVQ9O9PQBRYbGwQxGyxz-12">
          <mxGeometry relative="1" as="geometry">
            <mxPoint x="710" y="250" as="targetPoint" />
          </mxGeometry>
        </mxCell>
        <mxCell id="qmoSsivqGrwg9p8YMAHi-47" value="&lt;h1 align=&quot;right&quot;&gt;Repository Interface&lt;br&gt;&lt;/h1&gt;" style="whiteSpace=wrap;html=1;shadow=1;labelBackgroundColor=#F4F1DE;fontSize=7;fontColor=#393C56;strokeColor=#E07A5F;fillColor=#F2CC8F;labelBorderColor=#000000;" parent="1" vertex="1">
          <mxGeometry x="335" y="220" width="280" height="60" as="geometry" />
        </mxCell>
        <mxCell id="qmoSsivqGrwg9p8YMAHi-54" value="" style="endArrow=classic;html=1;rounded=0;labelBackgroundColor=#F4F1DE;fontSize=21;fontColor=#393C56;entryX=0.9;entryY=1.05;entryDx=0;entryDy=0;entryPerimeter=0;exitX=0.75;exitY=0;exitDx=0;exitDy=0;exitPerimeter=0;strokeColor=#E07A5F;" parent="1" source="qmoSsivqGrwg9p8YMAHi-35" target="qmoSsivqGrwg9p8YMAHi-47" edge="1">
          <mxGeometry width="50" height="50" relative="1" as="geometry">
            <mxPoint x="490" y="370" as="sourcePoint" />
            <mxPoint x="490" y="300" as="targetPoint" />
            <Array as="points" />
          </mxGeometry>
        </mxCell>
        <mxCell id="qmoSsivqGrwg9p8YMAHi-56" value="" style="endArrow=classic;html=1;rounded=0;labelBackgroundColor=#F4F1DE;fontSize=21;fontColor=#393C56;exitX=0.068;exitY=1.033;exitDx=0;exitDy=0;exitPerimeter=0;strokeColor=#E07A5F;" parent="1" source="qmoSsivqGrwg9p8YMAHi-47" edge="1">
          <mxGeometry width="50" height="50" relative="1" as="geometry">
            <mxPoint x="450" y="370" as="sourcePoint" />
            <mxPoint x="353" y="378" as="targetPoint" />
            <Array as="points" />
          </mxGeometry>
        </mxCell>
        <mxCell id="qmoSsivqGrwg9p8YMAHi-57" value="Activity" style="whiteSpace=wrap;html=1;aspect=fixed;shadow=1;labelBackgroundColor=#F4F1DE;labelBorderColor=#000000;fontSize=17;fontColor=#393C56;strokeColor=#E07A5F;fillColor=#F2CC8F;" parent="1" vertex="1">
          <mxGeometry x="90" y="-120" width="120" height="120" as="geometry" />
        </mxCell>
        <mxCell id="qmoSsivqGrwg9p8YMAHi-58" value="Fragment" style="whiteSpace=wrap;html=1;aspect=fixed;shadow=1;labelBackgroundColor=#F4F1DE;labelBorderColor=#000000;fontSize=16;fontColor=#393C56;strokeColor=#E07A5F;fillColor=#F2CC8F;" parent="1" vertex="1">
          <mxGeometry x="90" y="20" width="120" height="120" as="geometry" />
        </mxCell>
        <mxCell id="qmoSsivqGrwg9p8YMAHi-61" value="ViewModel" style="rounded=1;whiteSpace=wrap;html=1;absoluteArcSize=1;arcSize=14;strokeWidth=2;shadow=1;labelBackgroundColor=#F4F1DE;labelBorderColor=#000000;fontSize=16;fontColor=#393C56;fillColor=#F2CC8F;strokeColor=#E07A5F;" parent="1" vertex="1">
          <mxGeometry x="390" y="-120" width="300" height="230" as="geometry" />
        </mxCell>
        <mxCell id="qmoSsivqGrwg9p8YMAHi-64" value="Observer" style="strokeWidth=2;html=1;shape=mxgraph.flowchart.stored_data;whiteSpace=wrap;shadow=1;labelBackgroundColor=#F4F1DE;labelBorderColor=#000000;fontSize=16;fontColor=#393C56;fillColor=#F2CC8F;strokeColor=#E07A5F;" parent="1" vertex="1">
          <mxGeometry x="110" y="-40" width="100" height="30" as="geometry" />
        </mxCell>
        <mxCell id="qmoSsivqGrwg9p8YMAHi-65" value="Observer" style="strokeWidth=2;html=1;shape=mxgraph.flowchart.stored_data;whiteSpace=wrap;shadow=1;labelBackgroundColor=#F4F1DE;labelBorderColor=#000000;fontSize=16;fontColor=#393C56;fillColor=#F2CC8F;strokeColor=#E07A5F;" parent="1" vertex="1">
          <mxGeometry x="100" y="100" width="100" height="30" as="geometry" />
        </mxCell>
        <mxCell id="qmoSsivqGrwg9p8YMAHi-66" value="LiveData" style="strokeWidth=2;html=1;shape=mxgraph.flowchart.stored_data;whiteSpace=wrap;shadow=1;labelBackgroundColor=#F4F1DE;labelBorderColor=#000000;fontSize=16;fontColor=#393C56;fillColor=#F2CC8F;strokeColor=#E07A5F;" parent="1" vertex="1">
          <mxGeometry x="395" y="-40" width="100" height="30" as="geometry" />
        </mxCell>
        <mxCell id="qmoSsivqGrwg9p8YMAHi-69" value="" style="endArrow=open;endFill=1;endSize=12;html=1;rounded=0;labelBackgroundColor=#F4F1DE;fontSize=16;fontColor=#393C56;strokeColor=#E07A5F;" parent="1" edge="1">
          <mxGeometry width="160" relative="1" as="geometry">
            <mxPoint x="210" y="-80" as="sourcePoint" />
            <mxPoint x="365" y="-80" as="targetPoint" />
          </mxGeometry>
        </mxCell>
        <mxCell id="qmoSsivqGrwg9p8YMAHi-70" value="UI Event " style="text;html=1;align=center;verticalAlign=middle;resizable=0;points=[];autosize=1;strokeColor=none;fillColor=none;fontSize=16;fontColor=#393C56;" parent="1" vertex="1">
          <mxGeometry x="250" y="-100" width="80" height="20" as="geometry" />
        </mxCell>
        <mxCell id="qmoSsivqGrwg9p8YMAHi-73" value="" style="endArrow=classic;html=1;rounded=0;labelBackgroundColor=#F4F1DE;fontSize=21;fontColor=#393C56;entryX=1.017;entryY=0.408;entryDx=0;entryDy=0;entryPerimeter=0;exitX=0;exitY=0.5;exitDx=0;exitDy=0;strokeColor=#E07A5F;" parent="1" source="qmoSsivqGrwg9p8YMAHi-61" target="qmoSsivqGrwg9p8YMAHi-58" edge="1">
          <mxGeometry width="50" height="50" relative="1" as="geometry">
            <mxPoint x="276.03999999999996" y="23.980000000000018" as="sourcePoint" />
            <mxPoint x="275" y="120" as="targetPoint" />
            <Array as="points" />
          </mxGeometry>
        </mxCell>
        <mxCell id="qmoSsivqGrwg9p8YMAHi-75" value="" style="endArrow=classic;html=1;rounded=0;labelBackgroundColor=#F4F1DE;fontSize=21;fontColor=#393C56;entryX=1.017;entryY=0.408;entryDx=0;entryDy=0;entryPerimeter=0;exitX=-0.017;exitY=0.412;exitDx=0;exitDy=0;exitPerimeter=0;strokeColor=#E07A5F;" parent="1" source="qmoSsivqGrwg9p8YMAHi-61" edge="1">
          <mxGeometry width="50" height="50" relative="1" as="geometry">
            <mxPoint x="387.96" y="-50.13270398829123" as="sourcePoint" />
            <mxPoint x="209.99999999999997" y="-9.999999999999963" as="targetPoint" />
            <Array as="points" />
          </mxGeometry>
        </mxCell>
        <mxCell id="qmoSsivqGrwg9p8YMAHi-81" value="Retrofit Call" style="text;html=1;align=center;verticalAlign=middle;resizable=0;points=[];autosize=1;strokeColor=none;fillColor=none;fontSize=16;fontColor=#393C56;labelBackgroundColor=#F4F1DE;fontStyle=1" parent="1" vertex="1">
          <mxGeometry x="325" y="470" width="110" height="20" as="geometry" />
        </mxCell>
        <mxCell id="qmoSsivqGrwg9p8YMAHi-82" value="Query DB " style="text;html=1;align=center;verticalAlign=middle;resizable=0;points=[];autosize=1;strokeColor=none;fillColor=none;fontSize=16;fontColor=#393C56;labelBackgroundColor=#F4F1DE;fontStyle=1" parent="1" vertex="1">
          <mxGeometry x="575" y="470" width="90" height="20" as="geometry" />
        </mxCell>
        <mxCell id="qmoSsivqGrwg9p8YMAHi-84" value="Interface calls to Repos" style="text;html=1;align=center;verticalAlign=middle;resizable=0;points=[];autosize=1;strokeColor=none;fillColor=none;fontSize=16;fontColor=#393C56;labelBorderColor=none;labelBackgroundColor=#F4F1DE;" parent="1" vertex="1">
          <mxGeometry x="295" y="320" width="180" height="20" as="geometry" />
        </mxCell>
        <mxCell id="qmoSsivqGrwg9p8YMAHi-86" value="Response/Error&amp;nbsp; " style="text;html=1;align=center;verticalAlign=middle;resizable=0;points=[];autosize=1;strokeColor=none;fillColor=none;fontSize=16;fontColor=#393C56;labelBackgroundColor=#F4F1DE;" parent="1" vertex="1">
          <mxGeometry x="535" y="320" width="130" height="20" as="geometry" />
        </mxCell>
        <mxCell id="qmoSsivqGrwg9p8YMAHi-87" value="Interface calls " style="text;html=1;align=center;verticalAlign=middle;resizable=0;points=[];autosize=1;strokeColor=none;fillColor=none;fontSize=16;fontColor=#393C56;labelBorderColor=none;labelBackgroundColor=#F4F1DE;" parent="1" vertex="1">
          <mxGeometry x="335" y="140" width="110" height="20" as="geometry" />
        </mxCell>
        <mxCell id="qmoSsivqGrwg9p8YMAHi-93" value="" style="endArrow=open;endFill=1;endSize=12;html=1;rounded=0;labelBackgroundColor=#F4F1DE;fontSize=16;fontColor=#393C56;exitX=0.18;exitY=1.009;exitDx=0;exitDy=0;exitPerimeter=0;entryX=0.382;entryY=0.017;entryDx=0;entryDy=0;entryPerimeter=0;strokeColor=#E07A5F;" parent="1" source="qmoSsivqGrwg9p8YMAHi-61" target="qmoSsivqGrwg9p8YMAHi-47" edge="1">
          <mxGeometry width="160" relative="1" as="geometry">
            <mxPoint x="430" y="200" as="sourcePoint" />
            <mxPoint x="590" y="200" as="targetPoint" />
          </mxGeometry>
        </mxCell>
        <mxCell id="qmoSsivqGrwg9p8YMAHi-94" value="" style="endArrow=open;endFill=1;endSize=12;html=1;rounded=0;labelBackgroundColor=#F4F1DE;fontSize=16;fontColor=#393C56;entryX=0.607;entryY=1.013;entryDx=0;entryDy=0;entryPerimeter=0;strokeColor=#E07A5F;" parent="1" target="qmoSsivqGrwg9p8YMAHi-61" edge="1">
          <mxGeometry width="160" relative="1" as="geometry">
            <mxPoint x="570" y="220" as="sourcePoint" />
            <mxPoint x="730" y="220" as="targetPoint" />
          </mxGeometry>
        </mxCell>
        <mxCell id="qmoSsivqGrwg9p8YMAHi-96" value="Response/Error&amp;nbsp; " style="text;html=1;align=center;verticalAlign=middle;resizable=0;points=[];autosize=1;strokeColor=none;fillColor=none;fontSize=16;fontColor=#393C56;labelBackgroundColor=#F4F1DE;" parent="1" vertex="1">
          <mxGeometry x="550" y="150" width="130" height="20" as="geometry" />
        </mxCell>
        <mxCell id="qmoSsivqGrwg9p8YMAHi-45" value="&lt;h1 style=&quot;font-size: 22px;&quot;&gt;Single Source of Truth &lt;br style=&quot;font-size: 22px;&quot;&gt;&lt;/h1&gt;" style="text;html=1;align=center;verticalAlign=middle;resizable=0;points=[];autosize=1;strokeColor=none;fillColor=none;fontSize=22;labelBackgroundColor=#FF0080;fontColor=#393C56;" parent="1" vertex="1">
          <mxGeometry x="25" y="310" width="250" height="60" as="geometry" />
        </mxCell>
        <mxCell id="QVQ9O9PQBRYbGwQxGyxz-7" value="UI state " style="label;whiteSpace=wrap;html=1;image=img/clipart/Gear_128x128.png;fontSize=21;" vertex="1" parent="1">
          <mxGeometry x="410" y="20" width="140" height="60" as="geometry" />
        </mxCell>
        <mxCell id="QVQ9O9PQBRYbGwQxGyxz-9" value="Business Logic " style="label;whiteSpace=wrap;html=1;image=img/clipart/Gear_128x128.png;fontSize=21;" vertex="1" parent="1">
          <mxGeometry x="220" y="380" width="170" height="50" as="geometry" />
        </mxCell>
        <mxCell id="QVQ9O9PQBRYbGwQxGyxz-12" value="&lt;font style=&quot;font-size: 23px&quot;&gt;USE CASE&amp;nbsp; LAYER&lt;/font&gt;" style="text;html=1;align=center;verticalAlign=middle;resizable=0;points=[];autosize=1;strokeColor=none;fillColor=none;fontSize=21;" vertex="1" parent="1">
          <mxGeometry x="640" y="235" width="220" height="30" as="geometry" />
        </mxCell>
        <mxCell id="QVQ9O9PQBRYbGwQxGyxz-14" value="" style="endArrow=classic;html=1;rounded=0;fontSize=17;fontStyle=0;labelBackgroundColor=#F4F1DE;strokeColor=#E07A5F;fontColor=#393C56;" edge="1" parent="1">
          <mxGeometry width="50" height="50" relative="1" as="geometry">
            <mxPoint x="660" y="440" as="sourcePoint" />
            <mxPoint x="660" y="530" as="targetPoint" />
          </mxGeometry>
        </mxCell>
        <mxCell id="QVQ9O9PQBRYbGwQxGyxz-15" value="&lt;b style=&quot;font-size: 16px;&quot;&gt;&lt;font style=&quot;font-size: 16px;&quot;&gt;Store in DB&lt;/font&gt;&lt;/b&gt;" style="text;html=1;align=center;verticalAlign=middle;resizable=0;points=[];autosize=1;strokeColor=none;fillColor=none;fontSize=16;" vertex="1" parent="1">
          <mxGeometry x="540" y="660" width="100" height="20" as="geometry" />
        </mxCell>
        <mxCell id="QVQ9O9PQBRYbGwQxGyxz-22" value="" style="rounded=0;whiteSpace=wrap;html=1;fillColor=#F2CC8F;strokeColor=#E07A5F;fontColor=#393C56;" vertex="1" parent="1">
          <mxGeometry x="770" y="550" width="280" height="120" as="geometry" />
        </mxCell>
        <mxCell id="QVQ9O9PQBRYbGwQxGyxz-24" value="&lt;b&gt;DB&lt;/b&gt;" style="shape=cylinder3;whiteSpace=wrap;html=1;boundedLbl=1;backgroundOutline=1;size=15;fillColor=#F2CC8F;strokeColor=#E07A5F;fontColor=#393C56;" vertex="1" parent="1">
          <mxGeometry x="790" y="580" width="60" height="80" as="geometry" />
        </mxCell>
        <mxCell id="QVQ9O9PQBRYbGwQxGyxz-25" value="Model" style="edgeLabel;html=1;align=center;verticalAlign=middle;resizable=0;points=[];fontSize=16;fontStyle=1;labelBackgroundColor=#F4F1DE;fontColor=#393C56;" vertex="1" connectable="0" parent="1">
          <mxGeometry x="480" y="770" as="geometry">
            <mxPoint x="404" y="-163" as="offset" />
          </mxGeometry>
        </mxCell>
        <mxCell id="QVQ9O9PQBRYbGwQxGyxz-26" value="" style="endArrow=classic;html=1;rounded=0;fontSize=16;labelBackgroundColor=#F4F1DE;strokeColor=#E07A5F;fontColor=#393C56;" edge="1" parent="1">
          <mxGeometry relative="1" as="geometry">
            <mxPoint x="850" y="590" as="sourcePoint" />
            <mxPoint x="950" y="590" as="targetPoint" />
          </mxGeometry>
        </mxCell>
        <mxCell id="QVQ9O9PQBRYbGwQxGyxz-28" value="" style="endArrow=open;endFill=1;endSize=12;html=1;rounded=0;fontSize=17;" edge="1" parent="1">
          <mxGeometry width="160" relative="1" as="geometry">
            <mxPoint x="660" y="580" as="sourcePoint" />
            <mxPoint x="770" y="580" as="targetPoint" />
          </mxGeometry>
        </mxCell>
        <mxCell id="QVQ9O9PQBRYbGwQxGyxz-29" value="" style="edgeStyle=segmentEdgeStyle;endArrow=classic;html=1;rounded=0;fontSize=17;entryX=0.974;entryY=1.067;entryDx=0;entryDy=0;entryPerimeter=0;exitX=0.371;exitY=-0.017;exitDx=0;exitDy=0;exitPerimeter=0;" edge="1" parent="1" source="QVQ9O9PQBRYbGwQxGyxz-22" target="qmoSsivqGrwg9p8YMAHi-35">
          <mxGeometry width="50" height="50" relative="1" as="geometry">
            <mxPoint x="760" y="520" as="sourcePoint" />
            <mxPoint x="810" y="470" as="targetPoint" />
            <Array as="points">
              <mxPoint x="706" y="518" />
            </Array>
          </mxGeometry>
        </mxCell>
        <mxCell id="QVQ9O9PQBRYbGwQxGyxz-43" value="&lt;ul&gt;&lt;li&gt;Value 1&lt;/li&gt;&lt;li&gt;Value 2&lt;/li&gt;&lt;li&gt;Value 3&lt;/li&gt;&lt;/ul&gt;" style="text;strokeColor=none;fillColor=none;html=1;whiteSpace=wrap;verticalAlign=middle;overflow=hidden;fontSize=17;" vertex="1" parent="1">
          <mxGeometry x="940" y="560" width="100" height="80" as="geometry" />
        </mxCell>
        <mxCell id="QVQ9O9PQBRYbGwQxGyxz-46" value="Response/Error&amp;nbsp; " style="text;html=1;align=center;verticalAlign=middle;resizable=0;points=[];autosize=1;strokeColor=none;fillColor=none;fontSize=16;fontColor=#393C56;labelBackgroundColor=#F4F1DE;" vertex="1" parent="1">
          <mxGeometry x="710" y="470" width="130" height="20" as="geometry" />
        </mxCell>
        <mxCell id="QVQ9O9PQBRYbGwQxGyxz-48" value="Mapper" style="text;html=1;align=center;verticalAlign=middle;resizable=0;points=[];autosize=1;strokeColor=none;fillColor=none;fontSize=16;fontStyle=1;fontColor=#393C56;" vertex="1" parent="1">
          <mxGeometry x="810" y="680" width="70" height="20" as="geometry" />
        </mxCell>
        <mxCell id="QVQ9O9PQBRYbGwQxGyxz-50" style="edgeStyle=orthogonalEdgeStyle;rounded=0;orthogonalLoop=1;jettySize=auto;html=1;fontSize=16;" edge="1" parent="1" source="QVQ9O9PQBRYbGwQxGyxz-49">
          <mxGeometry relative="1" as="geometry">
            <mxPoint x="50" y="390" as="targetPoint" />
          </mxGeometry>
        </mxCell>
        <mxCell id="QVQ9O9PQBRYbGwQxGyxz-51" style="edgeStyle=orthogonalEdgeStyle;rounded=0;orthogonalLoop=1;jettySize=auto;html=1;fontSize=16;" edge="1" parent="1" source="QVQ9O9PQBRYbGwQxGyxz-49">
          <mxGeometry relative="1" as="geometry">
            <mxPoint x="50" y="868" as="targetPoint" />
          </mxGeometry>
        </mxCell>
        <mxCell id="QVQ9O9PQBRYbGwQxGyxz-49" value="DATA LAYER" style="text;html=1;align=center;verticalAlign=middle;resizable=0;points=[];autosize=1;strokeColor=none;fillColor=none;fontSize=22;fontStyle=1" vertex="1" parent="1">
          <mxGeometry x="-25" y="625" width="150" height="30" as="geometry" />
        </mxCell>
        <mxCell id="QVQ9O9PQBRYbGwQxGyxz-52" value="PRESENTATION LAYER" style="text;html=1;align=center;verticalAlign=middle;resizable=0;points=[];autosize=1;strokeColor=none;fillColor=none;fontSize=21;fontStyle=1" vertex="1" parent="1">
          <mxGeometry x="-175" y="-15" width="250" height="30" as="geometry" />
        </mxCell>
      </root>
    </mxGraphModel>
  </diagram>
</mxfile>
